<?xml version="1.0" encoding="utf-8"?>
<!-- Generator: Adobe Illustrator 26.5.0, SVG Export Plug-In . SVG Version: 6.00 Build 0)  -->
<svg version="1.1" xmlns="http://www.w3.org/2000/svg" xmlns:xlink="http://www.w3.org/1999/xlink" x="0px" y="0px"
	 viewBox="0 0 1165 986" style="enable-background:new 0 0 1165 986;" xml:space="preserve">
<style type="text/css">
	.st0{fill:#D9D9D9;stroke:#000000;}
	.st1{fill:#878787;}
	.st2{fill:#A106FF;}
</style>
<g id="Salon_12">
	<rect x="840.5" y="712.5" class="st0" width="141" height="180"/>
</g>
<g id="Salon_11">
	<rect x="564.5" y="33.5" class="st0" width="286" height="180"/>
</g>
<g id="Salon_10">
	<rect x="201.5" y="33.5" class="st0" width="286" height="180"/>
</g>
<g id="Salon_9">
	<rect x="928.5" y="41.5" class="st0" width="174" height="200"/>
</g>
<g id="Salon_8">
	<rect x="928.5" y="252.5" class="st0" width="174" height="200"/>
</g>
<g id="Salon_7">
	<rect x="928.5" y="463.5" class="st0" width="174" height="188"/>
</g>
<g id="Salon_6">
	<rect x="986.5" y="819.5" class="st0" width="163" height="151"/>
</g>
<g id="Salon_5">
	<rect x="340.5" y="724.5" class="st0" width="348" height="246"/>
</g>
<g id="Salon_4">
	<rect x="15.5" y="783.5" class="st0" width="257" height="187"/>
</g>
<g id="Salon_3">
	<rect x="15.5" y="429.5" class="st0" width="177" height="266"/>
</g>
<g id="Salon_2">
	<rect x="15.5" y="253.5" class="st0" width="177" height="169"/>
</g>
<g id="Salon_1">
	<rect x="15.5" y="33.5" class="st0" width="177" height="213"/>
</g>
<g id="Cafeteria">
	<rect x="282.5" y="284.5" class="st0" width="555" height="359"/>
</g>
<g id="Muros">
	<rect id="Muro_00000168813808912642922490000004234379042611441849_" x="340" y="649" class="st1" width="475" height="13"/>
	<rect id="Muro_00000044870685126115986100000008341655583506136494_" x="851" y="268" class="st1" width="13" height="368"/>
	<rect id="Muro_00000116228449761416862750000007780215202763900347_" x="614" y="267" class="st1" width="250" height="13"/>
	<rect id="Muro_00000024700155897537950220000002543277597887884953_" x="262" y="267" class="st1" width="250" height="13"/>
	<rect id="Muro_00000150821364727301589480000005758163389464934286_" y="0" class="st1" width="15" height="971"/>
	<rect id="Muro_00000136383537145666703660000013305598959963697849_" x="1150" y="0" class="st1" width="15" height="971"/>
	<rect id="Muro_00000053521221882699205980000009787649285263168440_" x="37" y="0" class="st1" width="731" height="15"/>
	<rect id="Muro_00000132079017772016238960000002602331181398178735_" x="37" y="971" class="st1" width="669" height="15"/>
	<rect id="Muro_00000014605680602430369350000011789557270361839807_" x="826" y="971" class="st1" width="324" height="15"/>
	<rect id="Muro_00000183236789379894993660000004698133405876579206_" x="199" y="426" class="st1" width="73" height="15"/>
	<rect id="Muro_00000148642354029159486380000015036140680204510606_" x="825" y="0" class="st1" width="338" height="15"/>
	<rect id="Muro_00000113348343969274434700000002808234631138595241_" x="262" y="280" class="st1" width="13" height="369"/>
	<rect id="Muro_00000088834683089047929240000013908249963754943645_" x="260" y="712" class="st1" width="13" height="71"/>
	<rect id="Muro" x="844" y="893" class="st1" width="13" height="78"/>
</g>
<g id="Salidas">
	<rect x="770" y="0" class="st2" width="53" height="24"/>
	<rect x="711" y="962" class="st2" width="110" height="24"/>
</g>
</svg>
